<?xml version="1.0" encoding="utf-8"?><svg viewBox="0 0 171 32" xmlns="http://www.w3.org/2000/svg" xmlns:xlink="http://www.w3.org/1999/xlink"><style>:root>svg{display:none}:root>svg:target{display:block}</style><svg viewBox="0 0 171 31" fill="currentColor" stroke="currentColor" id="logo" xmlns="http://www.w3.org/2000/svg"><path d="M28.128 24L22.112 13.216L26.496 10.688L34.112 24H28.128ZM18.304 14.976V10.656H25.28V14.976H18.304ZM26.784 13.376L21.984 12.8L28.224 1.6H33.696L26.784 13.376ZM6.4 24H0.416L8.032 10.688L12.416 13.216L6.4 24ZM19.84 24H14.752V1.6H19.84V24ZM16.256 14.976H9.248V10.656H16.256V14.976ZM7.776 13.376L0.832 1.6H6.304L12.512 12.8L7.776 13.376ZM36.6188 24V6.784H41.5788V17.024L49.9628 6.784H54.5388V24H49.5788V13.76L41.2268 24H36.6188ZM57.1615 23.968L57.4175 19.872C57.5455 19.8933 57.6735 19.9147 57.8015 19.936C57.9295 19.936 58.0468 19.936 58.1535 19.936C58.7508 19.936 59.2202 19.7653 59.5615 19.424C59.9028 19.0827 60.1588 18.624 60.3295 18.048C60.5002 17.4507 60.6175 16.7787 60.6815 16.032C60.7668 15.2853 60.8308 14.5067 60.8735 13.696L61.1295 6.784H75.8495V24H70.8575V9.664L71.9775 10.88H64.4255L65.4815 9.6L65.2575 13.92C65.1935 15.456 65.0655 16.864 64.8735 18.144C64.7028 19.424 64.4148 20.5333 64.0095 21.472C63.6042 22.3893 63.0602 23.104 62.3775 23.616C61.6948 24.1067 60.8202 24.352 59.7535 24.352C59.3695 24.352 58.9642 24.32 58.5375 24.256C58.1108 24.192 57.6522 24.096 57.1615 23.968ZM92.234 24.384C92.1913 24.384 92.074 24.384 91.882 24.384C91.69 24.384 91.5087 24.384 91.338 24.384C91.1673 24.384 91.05 24.384 90.986 24.384C87.2527 24.32 84.362 23.52 82.314 21.984C80.266 20.448 79.242 18.2293 79.242 15.328C79.242 12.4693 80.2553 10.2933 82.282 8.8C84.33 7.28533 87.2633 6.51733 91.082 6.496C91.1247 6.496 91.2313 6.496 91.402 6.496C91.594 6.496 91.7753 6.496 91.946 6.496C92.1167 6.496 92.2233 6.496 92.266 6.496C96.1273 6.496 99.114 7.24267 101.226 8.736C103.359 10.2293 104.426 12.4267 104.426 15.328C104.426 18.272 103.359 20.5227 101.226 22.08C99.114 23.616 96.1167 24.384 92.234 24.384ZM92.074 20.544C93.8447 20.544 95.2847 20.3627 96.394 20C97.5033 19.616 98.314 19.04 98.826 18.272C99.3593 17.4827 99.626 16.5013 99.626 15.328C99.626 14.1973 99.37 13.2693 98.858 12.544C98.346 11.7973 97.5247 11.2427 96.394 10.88C95.2847 10.5173 93.8447 10.336 92.074 10.336C92.01 10.336 91.882 10.336 91.69 10.336C91.498 10.336 91.37 10.336 91.306 10.336C89.5993 10.336 88.2127 10.528 87.146 10.912C86.0793 11.296 85.3007 11.8507 84.81 12.576C84.3193 13.3013 84.074 14.2187 84.074 15.328C84.074 16.48 84.3193 17.44 84.81 18.208C85.3007 18.976 86.0793 19.552 87.146 19.936C88.2127 20.32 89.5993 20.5227 91.306 20.544C91.37 20.544 91.498 20.544 91.69 20.544C91.882 20.544 92.01 20.544 92.074 20.544ZM89.546 30.208V0.255999H94.122V30.208H89.546ZM115.87 24.256C114.036 24.256 112.404 23.872 110.974 23.104C109.566 22.336 108.446 21.2907 107.614 19.968C106.804 18.624 106.398 17.0987 106.398 15.392C106.398 13.664 106.804 12.1387 107.614 10.816C108.446 9.472 109.566 8.42667 110.974 7.68C112.404 6.912 114.036 6.528 115.87 6.528C117.684 6.528 119.305 6.912 120.734 7.68C122.164 8.42667 123.284 9.46133 124.094 10.784C124.905 12.1067 125.31 13.6427 125.31 15.392C125.31 17.0987 124.905 18.624 124.094 19.968C123.284 21.2907 122.164 22.336 120.734 23.104C119.305 23.872 117.684 24.256 115.87 24.256ZM115.87 20.16C116.702 20.16 117.449 19.968 118.11 19.584C118.772 19.2 119.294 18.656 119.678 17.952C120.062 17.2267 120.254 16.3733 120.254 15.392C120.254 14.3893 120.062 13.536 119.678 12.832C119.294 12.128 118.772 11.584 118.11 11.2C117.449 10.816 116.702 10.624 115.87 10.624C115.038 10.624 114.292 10.816 113.63 11.2C112.969 11.584 112.436 12.128 112.03 12.832C111.646 13.536 111.454 14.3893 111.454 15.392C111.454 16.3733 111.646 17.2267 112.03 17.952C112.436 18.656 112.969 19.2 113.63 19.584C114.292 19.968 115.038 20.16 115.87 20.16ZM128.744 24V6.784H133.704V13.504H141.192V6.784H146.184V24H141.192V17.568H133.704V24H128.744ZM162.803 21.76V10.88H157.171L157.075 13.088C157.032 14.0053 156.979 14.88 156.915 15.712C156.851 16.544 156.723 17.3013 156.531 17.984C156.36 18.6453 156.104 19.2107 155.763 19.68C155.421 20.128 154.963 20.4373 154.387 20.608L149.459 19.904C150.077 19.904 150.579 19.7227 150.963 19.36C151.347 18.976 151.645 18.4533 151.859 17.792C152.072 17.1093 152.232 16.3413 152.339 15.488C152.445 14.6133 152.52 13.696 152.562 12.736L152.786 6.784H167.795V21.76H162.803ZM148.883 27.712V19.904H170.259V27.712H165.619V24H153.523V27.712H148.883Z"/></svg><svg viewBox="0 -12 32 32" version="1.1" xmlns:sketch="http://www.bohemiancoding.com/sketch/ns" fill="currentColor" stroke="currentColor" id="minus" xmlns="http://www.w3.org/2000/svg"><g id="bSVGRepo_bgCarrier" stroke-width="0"/><g id="bSVGRepo_tracerCarrier" stroke-linecap="round" stroke-linejoin="round"/><g id="bSVGRepo_iconCarrier"><title>minus</title><desc>Created with Sketch Beta.</desc><defs/><g id="bPage-1" stroke-width="1" fill-rule="evenodd" sketch:type="MSPage"><g id="bIcon-Set" sketch:type="MSLayerGroup" transform="translate(-412.000000, -1047.000000)"><path d="M440,1053 L416,1053 C414.896,1053 414,1052.1 414,1051 C414,1049.9 414.896,1049 416,1049 L440,1049 C441.104,1049 442,1049.9 442,1051 C442,1052.1 441.104,1053 440,1053 L440,1053 Z M440,1047 L416,1047 C413.791,1047 412,1048.79 412,1051 C412,1053.21 413.791,1055 416,1055 L440,1055 C442.209,1055 444,1053.21 444,1051 C444,1048.79 442.209,1047 440,1047 L440,1047 Z" id="bminus" sketch:type="MSShapeGroup"/></g></g></g></svg><svg viewBox="0 0 32 32" version="1.1" xmlns:sketch="http://www.bohemiancoding.com/sketch/ns" fill="currentColor" stroke="currentColor" id="plus" xmlns="http://www.w3.org/2000/svg"><g id="cSVGRepo_bgCarrier" stroke-width="0"/><g id="cSVGRepo_tracerCarrier" stroke-linecap="round" stroke-linejoin="round"/><g id="cSVGRepo_iconCarrier"><title>plus</title><desc>Created with Sketch Beta.</desc><defs/><g id="cPage-1" stroke-width="1" fill-rule="evenodd" sketch:type="MSPage"><g id="cIcon-Set" sketch:type="MSLayerGroup" transform="translate(-360.000000, -1035.000000)"><path d="M388,1053 L378,1053 L378,1063 C378,1064.1 377.104,1065 376,1065 C374.896,1065 374,1064.1 374,1063 L374,1053 L364,1053 C362.896,1053 362,1052.1 362,1051 C362,1049.9 362.896,1049 364,1049 L374,1049 L374,1039 C374,1037.9 374.896,1037 376,1037 C377.104,1037 378,1037.9 378,1039 L378,1049 L388,1049 C389.104,1049 390,1049.9 390,1051 C390,1052.1 389.104,1053 388,1053 L388,1053 Z M388,1047 L380,1047 L380,1039 C380,1036.79 378.209,1035 376,1035 C373.791,1035 372,1036.79 372,1039 L372,1047 L364,1047 C361.791,1047 360,1048.79 360,1051 C360,1053.21 361.791,1055 364,1055 L372,1055 L372,1063 C372,1065.21 373.791,1067 376,1067 C378.209,1067 380,1065.21 380,1063 L380,1055 L388,1055 C390.209,1055 392,1053.21 392,1051 C392,1048.79 390.209,1047 388,1047 L388,1047 Z" id="cplus" sketch:type="MSShapeGroup"/></g></g></g></svg></svg>